# xmcd
#
# Track frame offsets: 
#        150
#        13360
#        30810
#        42977
#        57767
#        74252
#        87230
#        98165
#        114255
#        131102
#
# Disc length: 1943 seconds
#
# Revision: 0
# Processed by: cddbd v1.4PL0 Copyright (c) Steve Scherf et al.
# Submitted via: ExactAudioCopy v0.90a11
#
DISCID=7c07950a
DTITLE=John Conlee - Fellow Travelers
DYEAR=1900
DGENRE=
TTITLE0=Where Are The Pieces Of My Heart
TTITLE1=River Of Time
TTITLE2=Hit The Ground Runnin'
TTITLE3=Till You Were Gone
TTITLE4=I Had The Time And Money Too
TTITLE5=Fellow Travelers
TTITLE6=Hopelessly Yours
TTITLE7=Knowin' You Were Leavin'
TTITLE8=Don't Get Me Started
TTITLE9=Almost Free
EXTD=
EXTT0=
EXTT1=
EXTT2=
EXTT3=
EXTT4=
EXTT5=
EXTT6=
EXTT7=
EXTT8=
EXTT9=
PLAYORDER=
